# File created by Blade
# Date/Time:  Tue Sep 23 19:18:47 2014
# Frame Rate: 120.000 fps
#------------------------------------------------------
:FULLY-SPECIFIED
:DEGREES
1962
root 3.151381 34.169926 -1.405454 114.055752 -30.233346 -36.081830
Spine -57.037176 -5.150899 13.950449
Head -22.001729 28.686177 17.899302
LeftShoulder -21.923185 36.298497 30.924647
LeftArm 80.925248 -70.330616 -112.087689
LeftForeArm -3.850190 -0.000000 94.866228
LeftHand -58.164205 -0.000000 9.812454
LeftHandThumb1 -26.253704 0.000000 33.147579
RightShoulder -37.804136 -43.118271 0.489471
RightArm 41.951377 41.820972 95.316390
RightForeArm 58.657122 -0.000000 5.166404
RightHand 26.181621 -0.000000 -19.078006
RightHandThumb1 -24.326973 -0.000000 -32.862282
LeftUpLeg -86.956224 26.799053 5.073383
LeftLeg -7.540604 -0.000000 0.000000
LeftFoot 3.902068 8.120999 10.271651
LeftToeBase 1.108469 -0.000000 -0.000000
RightUpLeg -11.148805 -15.514768 -29.513889
RightLeg 42.906255 -0.000000 -0.000000
RightFoot 43.221525 -4.480524 3.071577
RightToeBase 44.736111 -0.000000 -0.000000
1963
root 3.119379 34.171634 -1.348652 113.218753 -30.534440 -36.279636
Spine -56.480303 -5.120025 13.613915
Head -21.353464 28.427687 18.260989
LeftShoulder -21.733543 36.376453 30.931703
LeftArm 79.334502 -70.001884 -110.900328
LeftForeArm -3.975692 -0.000000 94.971490
LeftHand -58.179057 -0.000000 9.814702
LeftHandThumb1 -26.253704 0.000000 33.147579
RightShoulder -37.443446 -43.220779 0.372841
RightArm 42.424833 41.221616 95.390454
RightForeArm 58.478057 -0.000000 5.331347
RightHand 26.152168 -0.000000 -18.806152
RightHandThumb1 -24.326973 -0.000000 -32.862282
LeftUpLeg -85.834173 26.717118 5.205359
LeftLeg -7.358059 -0.000000 0.000000
LeftFoot 3.609006 8.259546 10.123814
LeftToeBase 1.128271 -0.000000 -0.000000
RightUpLeg -11.853045 -15.876979 -28.327075
RightLeg 41.245221 -0.000000 -0.000000
RightFoot 42.939373 -4.550817 2.634588
RightToeBase 44.532962 -0.000000 -0.000000
1964
root 3.086212 34.172782 -1.293476 112.400690 -30.908288 -36.448962
Spine -55.976242 -5.145640 13.236390
Head -20.722214 28.172343 18.598986
LeftShoulder -21.593369 36.523579 30.876055
LeftArm 77.944168 -69.639527 -109.851149
LeftForeArm -4.036803 0.000000 95.089237
LeftHand -58.073449 -0.000000 9.966523
LeftHandThumb1 -26.253704 0.000000 33.147579
RightShoulder -37.013406 -43.315741 0.152414
RightArm 42.888102 40.693502 95.530198
RightForeArm 58.375765 -0.000000 5.502388
RightHand 26.141978 -0.000000 -18.547984
RightHandThumb1 -24.326973 -0.000000 -32.862282
LeftUpLeg -84.735086 26.603131 5.304886
LeftLeg -7.154268 -0.000000 0.000000
LeftFoot 3.292062 8.397016 9.710605
LeftToeBase 1.152276 -0.000000 -0.000000
RightUpLeg -12.564871 -16.129596 -27.153063
RightLeg 39.694103 -0.000000 -0.000000
RightFoot 42.583350 -4.671687 2.038870
RightToeBase 44.414011 -0.000000 -0.000000
1965
root 3.046594 34.172705 -1.243172 111.443851 -31.310952 -36.557131
Spine -55.394616 -5.268344 12.836135
Head -20.057135 27.908461 18.976592
LeftShoulder -21.404774 36.600175 30.906063
LeftArm 76.508311 -69.275646 -108.826386
LeftForeArm -3.912464 -0.000000 95.248845
LeftHand -58.040615 0.000000 10.050018
LeftHandThumb1 -26.253704 0.000000 33.147579
RightShoulder -36.406796 -43.251865 -0.250194
RightArm 43.010933 40.268288 95.475432
RightForeArm 58.144933 -0.000000 5.769970
RightHand 26.050120 -0.000000 -18.411672
RightHandThumb1 -24.326973 -0.000000 -32.862282
LeftUpLeg -83.543914 26.451228 5.375622
LeftLeg -6.964610 -0.000000 0.000000
LeftFoot 2.964924 8.453361 9.187290
LeftToeBase 1.123056 -0.000000 -0.000000
RightUpLeg -13.156471 -16.312941 -25.979976
RightLeg 38.288386 -0.000000 -0.000000
RightFoot 42.149114 -5.013337 1.368842
RightToeBase 44.230716 -0.000000 -0.000000
1966
root 3.004465 34.172077 -1.196987 110.454802 -31.682940 -36.617756
Spine -54.816622 -5.408184 12.467914
Head -19.397389 27.581872 19.330237
LeftShoulder -21.240689 36.736712 30.887794
LeftArm 75.461604 -68.867632 -108.136885
LeftForeArm -3.732109 -0.000000 95.395915
LeftHand -58.001204 -0.000000 10.064946
LeftHandThumb1 -26.253704 0.000000 33.147579
RightShoulder -35.909655 -43.244097 -0.607688
RightArm 43.271950 39.819473 95.524473
RightForeArm 57.915451 -0.000000 6.043772
RightHand 25.992538 -0.000000 -18.353891
RightHandThumb1 -24.326973 -0.000000 -32.862282
LeftUpLeg -82.366379 26.292866 5.492208
LeftLeg -6.748659 -0.000000 0.000000
LeftFoot 2.620229 8.468244 8.632763
LeftToeBase 1.159306 -0.000000 -0.000000
RightUpLeg -13.640614 -16.199418 -24.752604
RightLeg 36.815582 -0.000000 -0.000000
RightFoot 41.799206 -5.876896 1.091910
RightToeBase 44.286187 -0.000000 -0.000000
1967
root 2.962364 34.167867 -1.155432 109.385435 -32.116264 -36.569692
Spine -54.244513 -5.653099 12.081913
Head -18.724389 27.244577 19.645119
LeftShoulder -21.127149 36.918758 30.821967
LeftArm 74.650034 -68.409452 -107.623144
LeftForeArm -3.498784 -0.000000 95.528237
LeftHand -58.107011 -0.000000 10.095717
LeftHandThumb1 -26.253704 0.000000 33.147579
RightShoulder -35.460545 -43.208762 -0.990004
RightArm 43.591718 39.366278 95.574849
RightForeArm 57.504539 -0.000000 6.213797
RightHand 25.904008 -0.000000 -18.560974
RightHandThumb1 -24.326973 -0.000000 -32.862282
LeftUpLeg -81.178726 26.026288 5.606841
LeftLeg -6.524585 -0.000000 0.000000
LeftFoot 2.306625 8.470284 8.163835
LeftToeBase 1.183017 -0.000000 -0.000000
RightUpLeg -14.054668 -16.193342 -23.604495
RightLeg 35.409702 -0.000000 -0.000000
RightFoot 41.619095 -6.673418 0.978133
RightToeBase 44.340863 -0.000000 -0.000000
1968
root 2.916337 34.158685 -1.116778 108.266875 -32.575713 -36.457187
Spine -53.692955 -5.926877 11.662266
Head -17.996976 26.842470 19.914681
LeftShoulder -21.016909 37.171098 30.683288
LeftArm 74.229874 -67.881211 -107.378583
LeftForeArm -3.003742 0.000000 95.601212
LeftHand -58.181181 -0.000000 10.023213
LeftHandThumb1 -26.253704 0.000000 33.147579
RightShoulder -35.041448 -43.106678 -1.451504
RightArm 43.829964 38.994649 95.652548
RightForeArm 56.860412 0.000000 6.440987
RightHand 25.722170 -0.000000 -18.628375
RightHandThumb1 -24.326973 -0.000000 -32.862282
LeftUpLeg -79.919758 25.705926 5.791286
LeftLeg -6.352718 -0.000000 0.000000
LeftFoot 2.009930 8.521607 7.660249
LeftToeBase 1.253386 -0.000000 -0.000000
RightUpLeg -14.412802 -16.274750 -22.462390
RightLeg 34.121351 -0.000000 -0.000000
RightFoot 41.156886 -7.555151 1.031247
RightToeBase 44.472423 -0.000000 -0.000000
1969
root 2.872311 34.146614 -1.080067 107.084502 -33.051238 -36.227834
Spine -53.137144 -6.231801 11.218182
Head -17.356697 26.336304 20.053607
LeftShoulder -20.838863 37.285034 30.587723
LeftArm 73.696929 -67.426720 -107.046597
LeftForeArm -2.802912 -0.000000 95.640383
LeftHand -58.155490 -0.000000 9.999991
LeftHandThumb1 -26.253704 0.000000 33.147579
RightShoulder -34.754000 -42.910436 -1.891172
RightArm 43.970839 38.539541 95.517605
RightForeArm 56.374845 -0.000000 6.531977
RightHand 25.604663 -0.000000 -18.656973
RightHandThumb1 -24.326973 -0.000000 -32.862282
LeftUpLeg -78.740727 25.288375 5.929269
LeftLeg -6.107069 -0.000000 0.000000
LeftFoot 1.705461 8.530683 7.259784
LeftToeBase 1.312360 -0.000000 -0.000000
RightUpLeg -14.709192 -16.450007 -21.335676
RightLeg 32.815336 -0.000000 -0.000000
RightFoot 41.083399 -7.732675 0.821917
RightToeBase 44.230521 -0.000000 -0.000000
1970
root 2.830721 34.132197 -1.046765 105.910438 -33.513622 -35.926489
Spine -52.651993 -6.552392 10.815411
Head -16.701807 25.863113 20.093328
LeftShoulder -20.645416 37.325157 30.500586
LeftArm 72.849534 -66.996634 -106.336449
LeftForeArm -2.489483 -0.000000 95.630830
LeftHand -58.208553 -0.000000 9.975616
LeftHandThumb1 -26.253704 0.000000 33.147579
RightShoulder -34.378237 -42.712189 -2.456426
RightArm 44.058020 38.176277 95.411812
RightForeArm 55.991223 -0.000000 6.616932
RightHand 25.537061 -0.000000 -18.544877
RightHandThumb1 -24.326973 -0.000000 -32.862282
LeftUpLeg -77.612022 24.819531 6.059477
LeftLeg -5.919061 -0.000000 0.000000
LeftFoot 1.469565 8.504977 6.925606
LeftToeBase 1.382280 -0.000000 -0.000000
RightUpLeg -15.026932 -16.680957 -20.203923
RightLeg 31.610645 -0.000000 -0.000000
RightFoot 40.824188 -8.028212 1.267318
RightToeBase 44.115269 -0.000000 -0.000000
1971
root 2.784889 34.113080 -1.017592 104.598708 -33.899049 -35.537328
Spine -52.064826 -6.888199 10.462248
Head -16.138567 25.353269 20.020183
LeftShoulder -20.426224 37.260308 30.427287
LeftArm 71.783812 -66.598886 -105.395087
LeftForeArm -2.214680 0.000000 95.608855
LeftHand -58.284815 -0.000000 10.052424
LeftHandThumb1 -26.253704 0.000000 33.147579
RightShoulder -34.162731 -42.496408 -2.887920
RightArm 44.250853 37.818558 95.254070
RightForeArm 55.816128 0.000000 6.535694
RightHand 25.677478 -0.000000 -18.319815
RightHandThumb1 -24.326973 -0.000000 -32.862282
LeftUpLeg -76.388998 24.284903 6.398928
LeftLeg -5.689544 -0.000000 0.000000
LeftFoot 1.223129 8.601144 6.666326
LeftToeBase 1.420642 -0.000000 -0.000000
RightUpLeg -15.206422 -16.949540 -19.013334
RightLeg 30.416173 -0.000000 -0.000000
RightFoot 40.740237 -8.352693 1.860644
RightToeBase 43.934284 -0.000000 -0.000000
